<svg id="Layer_2" data-name="Layer 2" xmlns="http://www.w3.org/2000/svg" viewBox="0 0 512 512"><defs><style>.cls-1{fill:#fed304;}</style></defs><title>shift</title><rect class="cls-1" width="512" height="512"/><path d="M71,402.25l7.21-10.18c5.09-6.79,11-7.64,19.09-2.55,10.61,7.64,33.52,24.19,65.34,24.19s52.61-17,52.61-42.85C215.24,304.66,71,319.51,71,226.16,71,175.67,113.41,143,168.14,143c35.64,0,63.65,14,75.1,22.91,7.21,5.09,8.06,11.46,4.24,19.09l-5.94,10.61c-5.09,8.91-11.88,8.06-19.09,3.82C211,192.64,192.75,182,167.29,182c-31,0-53.89,16.12-53.89,42,0,64.49,144.26,47.1,144.26,143.41,0,47.1-35.22,85.28-95,85.28-43.28,0-76.37-19.94-90-31C67.16,416.67,64.61,410.73,71,402.25Z"/><path d="M339.81,420.64q0-14.58,14.59-14.59h16.8q14.59,0,14.59,14.59v17.24q0,14.59-14.59,14.59h-16.8q-14.59,0-14.59-14.59Z"/></svg>